#!OML:ASF X:\für Bonn\!DataBase\2005_08_12_Daniel\c3d\Daniel.ASF
:FULLY-SPECIFIED
:DEGREES
336
root 0.234834 17.2988 -14.5733 170.749 173.272 -180.173
lowerback 26.4576 -1.44086 5.21502
upperback 8.77935 -0.685554 -2.7658
thorax -4.95045 -0.23096 -5.85013
lowerneck -4.32084 -0.147203 -3.06735
upperneck 9.42881 -0.101387 1.63402
head 3.84525 -0.0863058 1.07985
rclavicle -4.57205e-015 -4.37326e-015
rhumerus -25.7665 -23.6902 -81.7453
rradius 13.3089
rwrist 39.4565
rhand -15.5238 19.8959
rfingers 7.12502
rthumb 10.6595 -9.81376
lclavicle -4.57205e-015 -4.37326e-015
lhumerus -23.8051 19.0292 85.0178
lradius 38.2781
lwrist -8.68176
lhand -13.4278 -8.718
lfingers 7.12502
lthumb 12.6808 20.877
rfemur 6.79357 9.21909 26.5293
rtibia 27.3296
rfoot -28.3402 -10.2089
rtoes -9.1012
lfemur -19.5882 -6.85254 -14.0179
ltibia 62.1528
lfoot -13.5051 1.49986
ltoes -9.83058
337
root 0.227003 17.2913 -14.5089 170.754 173.418 -180.138
lowerback 26.2448 -1.41055 5.25408
upperback 8.59414 -0.647419 -2.7464
thorax -5.04818 -0.222057 -5.86159
lowerneck -4.3391 -0.0875159 -3.00609
upperneck 9.41272 -0.0186554 1.55932
head 3.84006 -0.0464077 1.04776
rclavicle -1.88845e-014 1.23246e-014
rhumerus -26.4345 -24.9763 -81.2058
rradius 13.1038
rwrist 40.3258
rhand -15.4654 20.1817
rfingers 7.12502
rthumb 10.7159 -9.52502
lclavicle -1.88845e-014 1.23246e-014
lhumerus -24.0505 19.4159 85.0956
lradius 37.9923
lwrist -9.47583
lhand -13.2189 -8.90736
lfingers 7.12502
lthumb 12.8822 20.6751
rfemur 7.16063 9.47357 26.6977
rtibia 27.1702
rfoot -28.5084 -10.3852
rtoes -9.12565
lfemur -19.9714 -6.73882 -14.2497
ltibia 61.8744
lfoot -13.6793 1.0349
ltoes -10.2375
338
root 0.219725 17.2867 -14.4438 170.774 173.554 -180.081
lowerback 26.0639 -1.37414 5.25184
upperback 8.38701 -0.609124 -2.71496
thorax -5.18535 -0.215373 -5.83613
lowerneck -4.35526 -0.0296567 -2.95997
upperneck 9.40821 0.0657194 1.45368
head 3.83862 -0.00764384 1.00822
rclavicle 1.03368e-014 -7.55382e-015
rhumerus -27.0721 -25.487 -80.8982
rradius 13.0109
rwrist 40.4159
rhand -15.402 20.2803
rfingers 7.12502
rthumb 10.777 -9.42325
lclavicle 1.03368e-014 -7.55382e-015
lhumerus -24.3652 19.8604 85.148
lradius 37.6889
lwrist -10.3719
lhand -13.0054 -9.10031
lfingers 7.12502
lthumb 13.088 20.469
rfemur 7.54074 9.70851 26.8311
rtibia 26.9664
rfoot -28.6868 -10.5631
rtoes -9.32829
lfemur -20.3093 -6.62941 -14.5138
ltibia 61.41
lfoot -13.8679 0.549496
ltoes -10.6743
339
root 0.212617 17.2838 -14.3786 170.86 173.683 -180.063
lowerback 25.8173 -1.35154 5.29517
upperback 8.18639 -0.580065 -2.67979
thorax -5.28375 -0.211574 -5.82938
lowerneck -4.37425 0.0310914 -2.96685
upperneck 9.33069 0.153263 1.40134
head 3.81247 0.0335447 0.995499
rclavicle -2.66371e-014 2.42517e-014
rhumerus -27.6714 -26.0992 -80.5779
rradius 12.905
rwrist 40.6947
rhand -15.4068 20.3273
rfingers 7.12502
rthumb 10.7724 -9.37646
lclavicle -2.66371e-014 2.42517e-014
lhumerus -24.6575 20.2705 85.1715
lradius 37.3562
lwrist -11.1604
lhand -12.7974 -9.27258
lfingers 7.12502
lthumb 13.2884 20.2838
rfemur 7.88752 9.94421 26.9937
rtibia 26.6635
rfoot -28.7867 -10.7438
rtoes -9.31936
lfemur -20.7085 -6.50951 -14.7225
ltibia 60.8094
lfoot -14.0829 -0.052921
ltoes -11.1132
340
root 0.206501 17.283 -14.3112 170.971 173.805 -180.022
lowerback 25.4858 -1.30349 5.30837
upperback 8.05735 -0.528798 -2.63302
thorax -5.25718 -0.190843 -5.79682
lowerneck -4.50842 0.0717428 -2.99533
upperneck 9.2479 0.219699 1.34223
head 3.80781 0.0635667 0.984126
rclavicle -1.94809e-014 2.14687e-014
rhumerus -28.0659 -26.1905 -80.5084
rradius 12.8865
rwrist 40.3838
rhand -15.3914 20.1335
rfingers 7.12502
rthumb 10.7872 -9.56953
lclavicle -1.94809e-014 2.14687e-014
lhumerus -24.8173 20.5894 85.2732
lradius 37.0065
lwrist -11.8758
lhand -12.6136 -9.3069
lfingers 7.12502
lthumb 13.4657 20.2378
rfemur 8.28611 10.1677 27.1248
rtibia 26.2425
rfoot -28.829 -10.9539
rtoes -9.47457
lfemur -21.1167 -6.42935 -14.963
ltibia 60.0983
lfoot -14.3133 -0.626533
ltoes -11.324
341
root 0.199174 17.2883 -14.2426 171.111 173.916 -179.965
lowerback 25.1271 -1.25581 5.26417
upperback 7.95038 -0.492155 -2.57219
thorax -5.19421 -0.175683 -5.71014
lowerneck -4.67627 0.121791 -3.08197
upperneck 9.12811 0.301715 1.31405
head 3.79668 0.100911 0.994117
rclavicle -1.98785e-015 2.78299e-015
rhumerus -28.4403 -26.5404 -80.3303
rradius 12.8162
rwrist 40.3932
rhand -15.4319 20.0131
rfingers 7.12502
rthumb 10.7481 -9.69191
lclavicle -1.98785e-015 2.78299e-015
lhumerus -24.935 21.0292 85.3683
lradius 36.6112
lwrist -12.5778
lhand -12.3919 -9.37055
lfingers 7.12502
lthumb 13.6794 20.1599
rfemur 8.71434 10.3845 27.2278
rtibia 25.7107
rfoot -28.8289 -11.1436
rtoes -9.53548
lfemur -21.5724 -6.40044 -15.2133
ltibia 59.2881
lfoot -14.4467 -1.1181
ltoes -11.1888
342
root 0.193039 17.298 -14.1714 171.256 174.033 -179.941
lowerback 24.7639 -1.21277 5.28389
upperback 7.85672 -0.446642 -2.51775
thorax -5.11196 -0.154763 -5.67016
lowerneck -4.87004 0.169561 -3.17572
upperneck 9.02352 0.380846 1.30266
head 3.79614 0.137327 1.01124
rclavicle -1.2921e-015 -1.70955e-014
rhumerus -28.7353 -26.6513 -80.2694
rradius 12.7637
rwrist 40.1305
rhand -15.4338 19.7627
rfingers 7.12502
rthumb 10.7464 -9.94247
lclavicle -1.2921e-015 -1.70955e-014
lhumerus -25.0381 21.4047 85.4456
lradius 36.2198
lwrist -13.2474
lhand -12.1539 -9.35591
lfingers 7.12502
lthumb 13.9087 20.1589
rfemur 9.20785 10.6346 27.3752
rtibia 25.06
rfoot -28.79 -11.3977
rtoes -9.56204
lfemur -22.0439 -6.39293 -15.4307
ltibia 58.3731
lfoot -14.4376 -1.44758
ltoes -11.0054
343
root 0.187309 17.3089 -14.1002 171.403 174.135 -179.903
lowerback 24.4371 -1.16958 5.29622
upperback 7.74846 -0.402272 -2.4836
thorax -5.06333 -0.135644 -5.64856
lowerneck -4.99054 0.216182 -3.18324
upperneck 8.88415 0.450981 1.26818
head 3.76876 0.17147 1.00411
rclavicle 1.98785e-016 1.74931e-014
rhumerus -29.1079 -27.1031 -80.0856
rradius 12.6668
rwrist 40.1041
rhand -15.4072 19.5647
rfingers 7.12502
rthumb 10.772 -10.1391
lclavicle 1.98785e-016 1.74931e-014
lhumerus -25.1507 21.7039 85.4739
lradius 35.8084
lwrist -13.808
lhand -11.9203 -9.32664
lfingers 7.12502
lthumb 14.1338 20.1726
rfemur 9.73768 10.8566 27.4958
rtibia 24.3316
rfoot -28.704 -11.6257
rtoes -9.65495
lfemur -22.4996 -6.44112 -15.6558
ltibia 57.3435
lfoot -14.4106 -1.65103
ltoes -10.825
344
root 0.180978 17.3192 -14.0271 171.574 174.232 -179.862
lowerback 24.1038 -1.12243 5.2771
upperback 7.62273 -0.358947 -2.4293
thorax -5.03029 -0.118299 -5.58598
lowerneck -5.08306 0.271602 -3.26719
upperneck 8.78609 0.534472 1.27911
head 3.75044 0.211263 1.0265
rclavicle 5.76476e-015 3.97569e-016
rhumerus -29.5501 -27.7759 -79.7081
rradius 12.5284
rwrist 40.439
rhand -15.3597 19.4478
rfingers 7.12502
rthumb 10.8178 -10.2537
lclavicle 5.76476e-015 3.97569e-016
lhumerus -25.3159 21.9786 85.5037
lradius 35.4215
lwrist -14.291
lhand -11.6837 -9.18003
lfingers 7.12502
lthumb 14.3618 20.3032
rfemur 10.2786 11.0984 27.6205
rtibia 23.5539
rfoot -28.6086 -11.8731
rtoes -9.72751
lfemur -22.9546 -6.49514 -15.8792
ltibia 56.2099
lfoot -14.385 -1.79152
ltoes -10.8081
345
root 0.175457 17.326 -13.9535 171.743 174.326 -179.822
lowerback 23.7642 -1.07479 5.25774
upperback 7.5202 -0.315223 -2.37552
thorax -4.96784 -0.0990129 -5.52356
lowerneck -5.20649 0.321113 -3.31968
upperneck 8.68627 0.61119 1.26063
head 3.73758 0.247622 1.03345
rclavicle 7.95139e-015 3.97569e-015
rhumerus -29.9261 -28.3327 -79.3985
rradius 12.3941
rwrist 40.5854
rhand -15.3163 19.3153
rfingers 7.12502
rthumb 10.8597 -10.3839
lclavicle 7.95139e-015 3.97569e-015
lhumerus -25.457 22.2582 85.5278
lradius 35.0514
lwrist -14.7644
lhand -11.4048 -8.9953
lfingers 7.12502
lthumb 14.6306 20.4686
rfemur 10.8235 11.3364 27.7445
rtibia 22.7766
rfoot -28.5169 -12.1422
rtoes -9.82003
lfemur -23.3615 -6.58292 -16.0935
ltibia 54.9793
lfoot -14.3789 -1.89346
ltoes -10.8673
346
root 0.170943 17.3328 -13.8782 171.912 174.427 -179.797
lowerback 23.447 -1.02773 5.2535
upperback 7.4041 -0.266687 -2.30906
thorax -4.9301 -0.078535 -5.45762
lowerneck -5.34659 0.372347 -3.40442
upperneck 8.65755 0.69327 1.24983
head 3.75297 0.285332 1.04984
rclavicle 1.89839e-014 -2.127e-014
rhumerus -30.3696 -29.0334 -78.9483
rradius 12.2429
rwrist 40.9657
rhand -15.272 19.2747
rfingers 7.12502
rthumb 10.9024 -10.4223
lclavicle 1.89839e-014 -2.127e-014
lhumerus -25.6002 22.5371 85.5411
lradius 34.6214
lwrist -15.2267
lhand -11.1326 -8.92446
lfingers 7.12502
lthumb 14.8928 20.5202
rfemur 11.3886 11.5562 27.8737
rtibia 21.9722
rfoot -28.3911 -12.3766
rtoes -9.7439
lfemur -23.7134 -6.694 -16.2881
ltibia 53.6612
lfoot -14.4044 -1.93383
ltoes -10.9474
